<?xml version="1.0" standalone="no"?><!DOCTYPE svg PUBLIC "-//W3C//DTD SVG 1.1//EN" "http://www.w3.org/Graphics/SVG/1.1/DTD/svg11.dtd"><svg class="icon" height="512" viewBox="0 0 1024 1024" version="1.1" xmlns="http://www.w3.org/2000/svg"><path d="M904.5504 77.5168H119.4496a93.7728 93.7728 0 0 0-93.7984 93.8496L25.6 852.6848a93.824 93.824 0 0 0 93.8496 93.7984h785.1008A93.8496 93.8496 0 0 0 998.4 852.6848V171.3664a93.9008 93.9008 0 0 0-93.8496-93.8496z m-71.424 64.384c0-4.5312 4.9152-8.2432 10.9056-8.2432h74.2144c5.9392 0 10.9056 3.7376 10.9056 8.2432v78.848c0 4.5568-4.9408 8.2944-10.9056 8.2944H844.032c-5.9648 0-10.9056-3.7376-10.9056-8.2944v-78.848z m-175.0272 0c0-4.5312 4.9408-8.2432 10.9568-8.2432h74.2144c6.016 0 10.9056 3.7376 10.9056 8.2432v78.848c0 4.5568-4.864 8.2944-10.9056 8.2944h-74.2144c-5.9904 0-10.9568-3.7376-10.9568-8.2944v-78.848z m-184.5248 0c0-4.5312 4.8896-8.2432 11.008-8.2432h74.1376c5.9904 0 10.9824 3.7376 10.9824 8.2432v78.848c0 4.5568-4.9664 8.2944-10.9824 8.2944h-74.1376c-6.0928 0-11.008-3.7376-11.008-8.2944v-78.848z m-184.6016 0c0-4.5312 4.8896-8.2432 11.008-8.2432h74.1888c5.9392 0 10.9312 3.7376 10.9312 8.2432v78.848c0 4.5568-4.9664 8.2944-10.9312 8.2944h-74.1888c-6.0928 0-11.008-3.7376-11.008-8.2944v-78.848z m-184.5504 0c0-4.5312 4.9664-8.2432 11.008-8.2432h74.1888c5.9648 0 10.9056 3.7376 10.9056 8.2432v78.848c0 4.5568-4.9152 8.2944-10.9056 8.2944H115.4304c-6.016 0-11.008-3.7376-11.008-8.2944v-78.848z m96.1024 728.704c0 4.48-4.9152 8.2432-10.9056 8.2432H115.4304c-6.016 0-11.008-3.7632-11.008-8.2432v-78.9248c0-4.5312 4.9664-8.192 11.008-8.192h74.1888c5.9648 0 10.9056 3.6864 10.9056 8.192v78.9248z m184.576 0c0 4.48-4.9664 8.2432-10.9312 8.2432h-74.1888c-6.0928 0-11.008-3.7632-11.008-8.2432v-78.9248c0-4.5312 4.8896-8.192 11.008-8.192h74.1888c5.9392 0 10.9312 3.6864 10.9312 8.192v78.9248z m184.576 0c0 4.48-4.9664 8.2432-10.9824 8.2432h-74.1376c-6.0928 0-11.008-3.7632-11.008-8.2432v-78.9248c0-4.5312 4.8896-8.192 11.008-8.192h74.1376c5.9904 0 10.9824 3.6864 10.9824 8.192v78.9248z m184.4992 0c0 4.48-4.864 8.2432-10.9056 8.2432h-74.2144c-5.9904 0-10.9568-3.7632-10.9568-8.2432v-78.9248c0-4.5312 4.9408-8.192 10.9568-8.192h74.2144c6.016 0 10.9056 3.6864 10.9056 8.192v78.9248z m174.976 0c0 4.48-4.9408 8.2432-10.9056 8.2432H844.032c-5.9648 0-10.9056-3.7632-10.9056-8.2432v-78.9248c0-4.5312 4.9152-8.192 10.9056-8.192h74.2144c5.9392 0 10.9056 3.6864 10.9056 8.192v78.9248z m4.992-133.7856H96.9472V271.3088H934.144v465.5104zM448.256 635.8784c-18.7136 11.3408-34.0992 2.7904-34.0992-19.1744v-228.1728c0-21.9136 15.3856-30.5152 34.0992-19.2l185.4976 112.5888c18.688 11.3664 18.688 30.0032 0 41.3696l-185.4976 112.5888z" /></svg>